<svg width="384" height="106" viewBox="0 0 384 106" fill="none" xmlns="http://www.w3.org/2000/svg">
<rect x="5" y="17" width="378" height="80" rx="8" fill="#212129"/>
<path d="M203.768 47.904C203.768 49.76 203.32 51.424 202.424 52.896C201.56 54.336 200.312 55.472 198.68 56.304C197.048 57.136 195.128 57.552 192.92 57.552C191.576 57.552 190.136 57.408 188.6 57.12V67.584C188.6 68.832 188.76 69.792 189.08 70.464C189.4 71.104 189.752 71.536 190.136 71.76C190.52 71.984 190.712 72.064 190.712 72H183.08C183.08 72.064 183.272 71.984 183.656 71.76C184.04 71.536 184.376 71.104 184.664 70.464C184.984 69.824 185.144 68.864 185.144 67.584V43.536C185.144 42.256 184.984 41.28 184.664 40.608C184.376 39.936 184.04 39.488 183.656 39.264C183.272 39.008 183.08 38.912 183.08 38.976H192.488C194.12 38.976 195.464 39.088 196.52 39.312C197.576 39.504 198.504 39.808 199.304 40.224C200.744 40.96 201.848 42.032 202.616 43.44C203.384 44.816 203.768 46.304 203.768 47.904ZM200.072 48.528C200.072 46.256 199.368 44.416 197.96 43.008C196.552 41.6 194.68 40.896 192.344 40.896H188.6V55.248C189.976 55.504 191.416 55.632 192.92 55.632C195.16 55.632 196.904 54.992 198.152 53.712C199.432 52.4 200.072 50.672 200.072 48.528ZM211.441 43.44C211.441 42.16 211.281 41.2 210.961 40.56C210.673 39.888 210.337 39.44 209.953 39.216C209.569 38.992 209.377 38.912 209.377 38.976H217.009C217.009 38.912 216.817 38.992 216.433 39.216C216.049 39.44 215.697 39.888 215.377 40.56C215.057 41.2 214.897 42.16 214.897 43.44V70.08H222.769C224.209 70.08 225.441 69.792 226.465 69.216C227.521 68.608 228.273 67.84 228.721 66.912L227.857 72H209.377C209.377 72.096 209.569 72.032 209.953 71.808C210.337 71.552 210.673 71.072 210.961 70.368C211.281 69.632 211.441 68.576 211.441 67.2V43.44ZM240.081 59.184L237.009 66.816C236.529 68 236.289 68.976 236.289 69.744C236.289 70.8 236.769 71.552 237.729 72H230.865C231.185 72 231.649 71.68 232.257 71.04C232.865 70.4 233.569 69.136 234.369 67.248L246.897 37.44L259.329 67.392C260.033 69.12 260.705 70.304 261.345 70.944C262.017 71.584 262.545 71.936 262.929 72H254.961C255.761 71.616 256.161 71.024 256.161 70.224C256.161 69.552 255.905 68.592 255.393 67.344L252.033 59.184H240.081ZM251.265 57.216L246.033 44.4L240.897 57.216H251.265ZM289.014 38.976C288.694 39.04 288.182 39.392 287.478 40.032C286.774 40.672 285.926 41.856 284.934 43.584L276.63 57.84V67.536C276.63 69.168 276.854 70.304 277.302 70.944C277.75 71.584 278.166 71.936 278.55 72H271.254C271.638 71.936 272.054 71.6 272.502 70.992C272.95 70.352 273.174 69.2 273.174 67.536V57.792L264.966 43.536C264.006 41.872 263.174 40.736 262.47 40.128C261.766 39.488 261.206 39.104 260.79 38.976H268.854C268.054 39.136 267.654 39.648 267.654 40.512C267.654 40.8 267.75 41.152 267.942 41.568C268.134 41.952 268.438 42.512 268.854 43.248L275.814 55.488L282.774 43.44C283.318 42.544 283.59 41.632 283.59 40.704C283.59 40.096 283.398 39.68 283.014 39.456C282.662 39.2 282.31 39.04 281.958 38.976H289.014Z" fill="#EFEFE7"/>
<path d="M103.5 55.5C102.7 41.5 94 24.5 89 19H344L381.5 62L341 95H89C94.6667 86.8333 104.3 69.5 103.5 55.5Z" stroke="#659C9F" stroke-width="3"/>
<g clip-path="url(#clip0_14_71)">
<path d="M6.02147 32.2985C2.18344 39.211 0 47.1272 0 55.545C0 63.9627 2.18344 71.8862 6.02147 78.7987V32.2985Z" fill="#C28F2C"/>
<path d="M50 6.69861C45.943 6.69861 42.0067 7.18551 38.2293 8.07081V15.7582C41.969 14.7106 45.9127 14.1351 50 14.1351C73.406 14.1351 92.3843 32.6158 92.3843 55.4198C92.3843 65.6892 88.5237 75.0808 82.1547 82.3034L80.946 86.5159L78.2713 95.8409C91.3947 87.0396 100.008 72.2771 100.008 55.5523C100 28.5655 77.6143 6.69861 50 6.69861Z" fill="#717564"/>
<path d="M38.2293 80.8942H76.579H77.4177C83.9077 74.2692 87.9043 65.298 87.9043 55.4197C87.9043 35.0283 70.9353 18.5026 50 18.5026C45.89 18.5026 41.9387 19.1518 38.2293 20.3248V80.8942Z" fill="#119BC2"/>
<path d="M33.696 0H5.16763L10.5545 10.9261V95.0813L5.16763 106H70.6407L76.579 85.3207H33.696V0Z" fill="#976B2E"/>
</g>
<defs>
<clipPath id="clip0_14_71">
<rect width="100" height="106" fill="white"/>
</clipPath>
</defs>
</svg>
