<svg width="100" height="100" viewBox="0 0 100 100" fill="none" xmlns="http://www.w3.org/2000/svg">
<path d="M50 93.5C74.0244 93.5 93.5 74.0244 93.5 50C93.5 25.9756 74.0244 6.5 50 6.5C25.9756 6.5 6.5 25.9756 6.5 50C6.5 74.0244 25.9756 93.5 50 93.5Z" fill="url(#paint0_linear_2_17)"/>
<path d="M50 91C72.6437 91 91 72.6437 91 50C91 27.3563 72.6437 9 50 9C27.3563 9 9 27.3563 9 50C9 72.6437 27.3563 91 50 91Z" fill="black"/>
<path d="M50 84C68.7777 84 84 68.7777 84 50C84 31.2223 68.7777 16 50 16C31.2223 16 16 31.2223 16 50C16 68.7777 31.2223 84 50 84Z" fill="url(#paint1_linear_2_17)"/>
<path d="M50 80C66.5685 80 80 66.5685 80 50C80 33.4315 66.5685 20 50 20C33.4315 20 20 33.4315 20 50C20 66.5685 33.4315 80 50 80Z" fill="black"/>
<path d="M48.78 28L29.78 47L48.78 67L54.78 62L44.78 51L65.78 50.93V43H44.78L54.78 33L48.78 28Z" fill="url(#paint2_linear_2_17)"/>
<defs>
<linearGradient id="paint0_linear_2_17" x1="53.4222" y1="27.9995" x2="53.4222" y2="67.0005" gradientUnits="userSpaceOnUse">
<stop stop-color="#C3A55D"/>
<stop offset="1" stop-color="#684A20"/>
</linearGradient>
<linearGradient id="paint1_linear_2_17" x1="12.6005" y1="47.5209" x2="86.6005" y2="47.5209" gradientUnits="userSpaceOnUse">
<stop stop-color="#896B37"/>
<stop offset="0.5" stop-color="#C8B456"/>
<stop offset="1" stop-color="#896B37"/>
</linearGradient>
<linearGradient id="paint2_linear_2_17" x1="53.4222" y1="27.9995" x2="53.4222" y2="67.0005" gradientUnits="userSpaceOnUse">
<stop stop-color="#C3A55D"/>
<stop offset="1" stop-color="#684A20"/>
</linearGradient>
</defs>
</svg>
