<svg width="88" height="99" viewBox="0 0 88 99" fill="none" xmlns="http://www.w3.org/2000/svg">
<circle cx="44" cy="51" r="42.5" fill="#020913" stroke="#1E2831" stroke-width="3"/>
<path d="M42.16 61.52L36.56 55.12L43.12 49.04C44.72 47.4933 46 46 46.96 44.56C47.92 43.0667 48.4 41.4933 48.4 39.84C48.4 38.56 47.92 37.52 46.96 36.72C46.0533 35.92 44.4267 35.52 42.08 35.52L31.84 38.96L28 28.24C29.4933 27.0133 31.6533 25.76 34.48 24.48C37.36 23.2 40.8267 22.56 44.88 22.56C51.12 22.56 55.6533 23.8667 58.48 26.48C61.3067 29.0933 62.72 32.4533 62.72 36.56C62.72 40.2933 61.76 43.6267 59.84 46.56C57.9733 49.44 55.8133 51.76 53.36 53.52L42.16 61.52ZM42.16 82.4L33.36 73.6L42.16 64.8L50.96 73.6L42.16 82.4Z" fill="#595959"/>
</svg>
